<svg width="30" height="31" viewBox="0 0 30 31" fill="none" xmlns="http://www.w3.org/2000/svg">
<path d="M6.25 16.0686C6.25 14.3714 6.25 13.5228 6.59308 12.7769C6.93615 12.0309 7.58046 11.4787 8.86906 10.3742L10.1191 9.30272C12.4482 7.30631 13.6128 6.30811 15 6.30811C16.3872 6.30811 17.5518 7.30631 19.8809 9.30272L21.1309 10.3742C22.4195 11.4787 23.0638 12.0309 23.4069 12.7769C23.75 13.5228 23.75 14.3714 23.75 16.0686V21.3691C23.75 23.7261 23.75 24.9046 23.0178 25.6368C22.2855 26.3691 21.107 26.3691 18.75 26.3691H11.25C8.89298 26.3691 7.71447 26.3691 6.98223 25.6368C6.25 24.9046 6.25 23.7261 6.25 21.3691V16.0686Z" stroke="#222222"/>
<path d="M18.125 26.3691V19.8691C18.125 19.3168 17.6773 18.8691 17.125 18.8691H12.875C12.3227 18.8691 11.875 19.3168 11.875 19.8691V26.3691" stroke="#222222" stroke-linecap="round" stroke-linejoin="round"/>
</svg>
