<svg width="31" height="31" viewBox="0 0 31 31" fill="none" xmlns="http://www.w3.org/2000/svg">
<path d="M10.5 15.6191L10.5 10.6191C10.5 7.85766 12.7386 5.61908 15.5 5.61908V5.61908C18.2614 5.61908 20.5 7.85766 20.5 10.6191L20.5 15.6191" stroke="#222222" stroke-linecap="round"/>
<path d="M5.19435 15.5369C5.33942 13.796 5.41196 12.9256 5.98605 12.3973C6.56013 11.8691 7.4336 11.8691 9.18053 11.8691H21.8195C23.5664 11.8691 24.4399 11.8691 25.014 12.3973C25.588 12.9256 25.6606 13.796 25.8057 15.5369L26.5695 24.703C26.654 25.7165 26.6962 26.2233 26.3991 26.5462C26.102 26.8691 25.5935 26.8691 24.5764 26.8691H6.4236C5.40655 26.8691 4.89802 26.8691 4.60092 26.5462C4.30382 26.2233 4.34605 25.7165 4.43051 24.703L5.19435 15.5369Z" stroke="#222222"/>
</svg>
