<svg width="44" height="45" viewBox="0 0 44 45" fill="none" xmlns="http://www.w3.org/2000/svg">
<path d="M5.5 18.6849C5.5 16.8076 7.02187 15.2857 8.89919 15.2857V15.2857C10.1867 15.2857 11.3637 14.5583 11.9395 13.4067L13.5611 10.1635C14.099 9.08771 14.368 8.54979 14.8513 8.25109C15.3346 7.95239 15.936 7.95239 17.1388 7.95239H26.8612C28.064 7.95239 28.6654 7.95239 29.1487 8.25109C29.632 8.54979 29.901 9.08771 30.4389 10.1635L32.0605 13.4067C32.6363 14.5583 33.8133 15.2857 35.1008 15.2857V15.2857C36.9781 15.2857 38.5 16.8076 38.5 18.6849V31.2857C38.5 34.1142 38.5 35.5284 37.6213 36.407C36.7426 37.2857 35.3284 37.2857 32.5 37.2857H11.5C8.67157 37.2857 7.25736 37.2857 6.37868 36.407C5.5 35.5284 5.5 34.1142 5.5 31.2857V18.6849Z" stroke="#222222"/>
<path d="M28.8332 24.4524C28.8332 28.2264 25.7738 31.2857 21.9998 31.2857C18.2259 31.2857 15.1665 28.2264 15.1665 24.4524C15.1665 20.6785 18.2259 17.6191 21.9998 17.6191C25.7738 17.6191 28.8332 20.6785 28.8332 24.4524Z" stroke="#222222"/>
</svg>
